<svg width="82" height="22" viewBox="0 0 82 22" fill="none" xmlns="http://www.w3.org/2000/svg">
<path d="M10.62 3.348C10.524 3.516 10.42 3.64 10.308 3.72C10.204 3.792 10.072 3.828 9.912 3.828C9.744 3.828 9.56 3.768 9.36 3.648C9.168 3.52 8.936 3.38 8.664 3.228C8.392 3.076 8.072 2.94 7.704 2.82C7.344 2.692 6.916 2.628 6.42 2.628C5.972 2.628 5.58 2.684 5.244 2.796C4.908 2.9 4.624 3.048 4.392 3.24C4.168 3.432 4 3.664 3.888 3.936C3.776 4.2 3.72 4.492 3.72 4.812C3.72 5.22 3.832 5.56 4.056 5.832C4.288 6.104 4.592 6.336 4.968 6.528C5.344 6.72 5.772 6.892 6.252 7.044C6.732 7.196 7.224 7.36 7.728 7.536C8.232 7.704 8.724 7.904 9.204 8.136C9.684 8.36 10.112 8.648 10.488 9C10.864 9.344 11.164 9.768 11.388 10.272C11.62 10.776 11.736 11.388 11.736 12.108C11.736 12.892 11.6 13.628 11.328 14.316C11.064 14.996 10.672 15.592 10.152 16.104C9.64 16.608 9.012 17.008 8.268 17.304C7.524 17.592 6.672 17.736 5.712 17.736C5.16 17.736 4.616 17.68 4.08 17.568C3.544 17.464 3.028 17.312 2.532 17.112C2.044 16.912 1.584 16.672 1.152 16.392C0.72 16.112 0.336 15.8 0 15.456L0.948 13.908C1.028 13.796 1.132 13.704 1.26 13.632C1.388 13.552 1.524 13.512 1.668 13.512C1.868 13.512 2.084 13.596 2.316 13.764C2.548 13.924 2.824 14.104 3.144 14.304C3.464 14.504 3.836 14.688 4.26 14.856C4.692 15.016 5.208 15.096 5.808 15.096C6.728 15.096 7.44 14.88 7.944 14.448C8.448 14.008 8.7 13.38 8.7 12.564C8.7 12.108 8.584 11.736 8.352 11.448C8.128 11.16 7.828 10.92 7.452 10.728C7.076 10.528 6.648 10.36 6.168 10.224C5.688 10.088 5.2 9.94 4.704 9.78C4.208 9.62 3.72 9.428 3.24 9.204C2.76 8.98 2.332 8.688 1.956 8.328C1.58 7.968 1.276 7.52 1.044 6.984C0.82 6.44 0.708 5.772 0.708 4.98C0.708 4.348 0.832 3.732 1.08 3.132C1.336 2.532 1.704 2 2.184 1.536C2.664 1.072 3.256 0.699999 3.96 0.42C4.664 0.14 5.472 0 6.384 0C7.408 0 8.352 0.16 9.216 0.48C10.08 0.799999 10.816 1.248 11.424 1.824L10.62 3.348Z" fill="#F4F4F4"/>
<path d="M16.8135 14.352C17.1495 14.76 17.5135 15.048 17.9055 15.216C18.3055 15.384 18.7375 15.468 19.2015 15.468C19.6495 15.468 20.0535 15.384 20.4135 15.216C20.7735 15.048 21.0775 14.792 21.3255 14.448C21.5815 14.104 21.7775 13.672 21.9135 13.152C22.0495 12.624 22.1175 12.004 22.1175 11.292C22.1175 10.572 22.0575 9.964 21.9375 9.468C21.8255 8.964 21.6615 8.556 21.4455 8.244C21.2295 7.932 20.9655 7.704 20.6535 7.56C20.3495 7.416 20.0015 7.344 19.6095 7.344C18.9935 7.344 18.4695 7.476 18.0375 7.74C17.6055 7.996 17.1975 8.36 16.8135 8.832V14.352ZM16.6575 6.912C17.1615 6.344 17.7335 5.884 18.3735 5.532C19.0135 5.18 19.7655 5.004 20.6295 5.004C21.3015 5.004 21.9135 5.144 22.4655 5.424C23.0255 5.704 23.5055 6.112 23.9055 6.648C24.3135 7.176 24.6255 7.832 24.8415 8.616C25.0655 9.392 25.1775 10.284 25.1775 11.292C25.1775 12.212 25.0535 13.064 24.8055 13.848C24.5575 14.632 24.2015 15.312 23.7375 15.888C23.2815 16.464 22.7255 16.916 22.0695 17.244C21.4215 17.564 20.6935 17.724 19.8855 17.724C19.1975 17.724 18.6095 17.62 18.1215 17.412C17.6335 17.196 17.1975 16.9 16.8135 16.524V21.564H13.8495V5.232H15.6615C16.0455 5.232 16.2975 5.412 16.4175 5.772L16.6575 6.912Z" fill="#F4F4F4"/>
<path d="M35.4221 9.972C35.4221 9.588 35.3661 9.228 35.2541 8.892C35.1501 8.548 34.9901 8.248 34.7741 7.992C34.5581 7.736 34.2821 7.536 33.9461 7.392C33.6181 7.24 33.2341 7.164 32.7941 7.164C31.9381 7.164 31.2621 7.408 30.7661 7.896C30.2781 8.384 29.9661 9.076 29.8301 9.972H35.4221ZM29.7701 11.76C29.8181 12.392 29.9301 12.94 30.1061 13.404C30.2821 13.86 30.5141 14.24 30.8021 14.544C31.0901 14.84 31.4301 15.064 31.8221 15.216C32.2221 15.36 32.6621 15.432 33.1421 15.432C33.6221 15.432 34.0341 15.376 34.3781 15.264C34.7301 15.152 35.0341 15.028 35.2901 14.892C35.5541 14.756 35.7821 14.632 35.9741 14.52C36.1741 14.408 36.3661 14.352 36.5501 14.352C36.7981 14.352 36.9821 14.444 37.1021 14.628L37.9541 15.708C37.6261 16.092 37.2581 16.416 36.8501 16.68C36.4421 16.936 36.0141 17.144 35.5661 17.304C35.1261 17.456 34.6741 17.564 34.2101 17.628C33.7541 17.692 33.3101 17.724 32.8781 17.724C32.0221 17.724 31.2261 17.584 30.4901 17.304C29.7541 17.016 29.1141 16.596 28.5701 16.044C28.0261 15.484 27.5981 14.796 27.2861 13.98C26.9741 13.156 26.8181 12.204 26.8181 11.124C26.8181 10.284 26.9541 9.496 27.2261 8.76C27.4981 8.016 27.8861 7.372 28.3901 6.828C28.9021 6.276 29.5221 5.84 30.2501 5.52C30.9861 5.2 31.8141 5.04 32.7341 5.04C33.5101 5.04 34.2261 5.164 34.8821 5.412C35.5381 5.66 36.1021 6.024 36.5741 6.504C37.0461 6.976 37.4141 7.56 37.6781 8.256C37.9501 8.944 38.0861 9.732 38.0861 10.62C38.0861 11.068 38.0381 11.372 37.9421 11.532C37.8461 11.684 37.6621 11.76 37.3901 11.76H29.7701Z" fill="#F4F4F4"/>
<path d="M49.1304 7.836C49.0424 7.948 48.9544 8.036 48.8664 8.1C48.7864 8.164 48.6664 8.196 48.5064 8.196C48.3544 8.196 48.2064 8.152 48.0624 8.064C47.9184 7.968 47.7464 7.864 47.5464 7.752C47.3464 7.632 47.1064 7.528 46.8264 7.44C46.5544 7.344 46.2144 7.296 45.8064 7.296C45.2864 7.296 44.8304 7.392 44.4384 7.584C44.0464 7.768 43.7184 8.036 43.4544 8.388C43.1984 8.74 43.0064 9.168 42.8784 9.672C42.7504 10.168 42.6864 10.732 42.6864 11.364C42.6864 12.02 42.7544 12.604 42.8904 13.116C43.0344 13.628 43.2384 14.06 43.5024 14.412C43.7664 14.756 44.0864 15.02 44.4624 15.204C44.8384 15.38 45.2624 15.468 45.7344 15.468C46.2064 15.468 46.5864 15.412 46.8744 15.3C47.1704 15.18 47.4184 15.052 47.6184 14.916C47.8184 14.772 47.9904 14.644 48.1344 14.532C48.2864 14.412 48.4544 14.352 48.6384 14.352C48.8784 14.352 49.0584 14.444 49.1784 14.628L50.0304 15.708C49.7024 16.092 49.3464 16.416 48.9624 16.68C48.5784 16.936 48.1784 17.144 47.7624 17.304C47.3544 17.456 46.9304 17.564 46.4904 17.628C46.0584 17.692 45.6264 17.724 45.1944 17.724C44.4344 17.724 43.7184 17.584 43.0464 17.304C42.3744 17.016 41.7864 16.6 41.2824 16.056C40.7784 15.512 40.3784 14.848 40.0824 14.064C39.7944 13.272 39.6504 12.372 39.6504 11.364C39.6504 10.46 39.7784 9.624 40.0344 8.856C40.2984 8.08 40.6824 7.412 41.1864 6.852C41.6904 6.284 42.3144 5.84 43.0584 5.52C43.8024 5.2 44.6584 5.04 45.6264 5.04C46.5464 5.04 47.3504 5.188 48.0384 5.484C48.7344 5.78 49.3584 6.204 49.9104 6.756L49.1304 7.836Z" fill="#F4F4F4"/>
<path d="M55.9926 17.736C54.9206 17.736 54.0966 17.436 53.5206 16.836C52.9526 16.228 52.6686 15.392 52.6686 14.328V7.452H51.4086C51.2486 7.452 51.1126 7.4 51.0006 7.296C50.8886 7.192 50.8326 7.036 50.8326 6.828V5.652L52.8126 5.328L53.4366 1.968C53.4766 1.808 53.5526 1.684 53.6646 1.596C53.7766 1.508 53.9206 1.464 54.0966 1.464H55.6326V5.34H58.9206V7.452H55.6326V14.124C55.6326 14.508 55.7246 14.808 55.9086 15.024C56.1006 15.24 56.3606 15.348 56.6886 15.348C56.8726 15.348 57.0246 15.328 57.1446 15.288C57.2726 15.24 57.3806 15.192 57.4686 15.144C57.5646 15.096 57.6486 15.052 57.7206 15.012C57.7926 14.964 57.8646 14.94 57.9366 14.94C58.0246 14.94 58.0966 14.964 58.1526 15.012C58.2086 15.052 58.2686 15.116 58.3326 15.204L59.2206 16.644C58.7886 17.004 58.2926 17.276 57.7326 17.46C57.1726 17.644 56.5926 17.736 55.9926 17.736Z" fill="#F4F4F4"/>
<path d="M71.4262 5.232V17.544H69.6143C69.2223 17.544 68.9742 17.364 68.8702 17.004L68.6662 16.02C68.1622 16.532 67.6062 16.948 66.9982 17.268C66.3902 17.58 65.6743 17.736 64.8503 17.736C64.1783 17.736 63.5822 17.624 63.0622 17.4C62.5502 17.168 62.1183 16.844 61.7663 16.428C61.4143 16.012 61.1462 15.52 60.9622 14.952C60.7862 14.376 60.6982 13.744 60.6982 13.056V5.232H63.6622V13.056C63.6622 13.808 63.8342 14.392 64.1782 14.808C64.5302 15.216 65.0543 15.42 65.7503 15.42C66.2623 15.42 66.7422 15.308 67.1902 15.084C67.6382 14.852 68.0622 14.536 68.4622 14.136V5.232H71.4262Z" fill="#F4F4F4"/>
<path d="M77.1611 7.368C77.5451 6.632 78.0011 6.056 78.5291 5.64C79.0571 5.216 79.6811 5.004 80.4011 5.004C80.9691 5.004 81.4251 5.128 81.7691 5.376L81.5771 7.596C81.5371 7.74 81.4771 7.844 81.3971 7.908C81.3251 7.964 81.2251 7.992 81.0971 7.992C80.9771 7.992 80.7971 7.972 80.5571 7.932C80.3251 7.892 80.0971 7.872 79.8731 7.872C79.5451 7.872 79.2531 7.92 78.9971 8.016C78.7411 8.112 78.5091 8.252 78.3011 8.436C78.1011 8.612 77.9211 8.828 77.7611 9.084C77.6091 9.34 77.4651 9.632 77.3291 9.96V17.544H74.3651V5.232H76.1051C76.4091 5.232 76.6211 5.288 76.7411 5.4C76.8611 5.504 76.9411 5.696 76.9811 5.976L77.1611 7.368Z" fill="#F4F4F4"/>
</svg>
